<?xml version="1.0" encoding="UTF-8" standalone="no"?>
<!-- Generator: Adobe Illustrator 15.1.0, SVG Export Plug-In . SVG Version: 6.00 Build 0)  -->

<svg
   xmlns:dc="http://purl.org/dc/elements/1.1/"
   xmlns:cc="http://creativecommons.org/ns#"
   xmlns:rdf="http://www.w3.org/1999/02/22-rdf-syntax-ns#"
   xmlns:svg="http://www.w3.org/2000/svg"
   xmlns="http://www.w3.org/2000/svg"
   xmlns:sodipodi="http://sodipodi.sourceforge.net/DTD/sodipodi-0.dtd"
   xmlns:inkscape="http://www.inkscape.org/namespaces/inkscape"
   version="1.2"
   id="Layer_1"
   x="0px"
   y="0px"
   width="777.05603"
   height="731.06097"
   viewBox="0 0 777.05603 731.06097"
   overflow="inherit"
   xml:space="preserve"
   inkscape:version="0.91 r13725"
   sodipodi:docname="auto-choke-logo.svg"
   style="overflow:inherit"><metadata
     id="metadata33"><rdf:RDF><cc:Work
         rdf:about=""><dc:format>image/svg+xml</dc:format><dc:type
           rdf:resource="http://purl.org/dc/dcmitype/StillImage" /><dc:title></dc:title></cc:Work></rdf:RDF></metadata><defs
     id="defs31" /><sodipodi:namedview
     pagecolor="#ffffff"
     bordercolor="#666666"
     borderopacity="1"
     objecttolerance="10"
     gridtolerance="10"
     guidetolerance="10"
     inkscape:pageopacity="0"
     inkscape:pageshadow="2"
     inkscape:window-width="1865"
     inkscape:window-height="1056"
     id="namedview29"
     showgrid="false"
     fit-margin-top="0"
     fit-margin-left="0"
     fit-margin-right="0"
     fit-margin-bottom="0"
     inkscape:zoom="0.36875"
     inkscape:cx="477.56287"
     inkscape:cy="125.40349"
     inkscape:window-x="55"
     inkscape:window-y="24"
     inkscape:window-maximized="1"
     inkscape:current-layer="Layer_1" /><path
     style="fill:none"
     inkscape:connector-curvature="0"
     id="path5"
     d="m -211.9685,-274.4685 -39.51,0 0,39.436 c 0.043,-21.724 17.712,-39.348 39.51,-39.436 z" /><path
     style="fill:none"
     inkscape:connector-curvature="0"
     id="path7"
     d="m -251.4785,966.0495 0,39.482 39.659,0 c -21.872,0 -39.616,-17.698 -39.659,-39.482 z" /><path
     style="fill:none"
     inkscape:connector-curvature="0"
     id="path9"
     d="m 988.8925,1005.5315 39.629,0 0,-39.541 c 0,21.813 -17.758,39.541 -39.629,39.541 z" /><path
     style="fill:none"
     inkscape:connector-curvature="0"
     id="path11"
     d="m 989.0395,-274.4685 c 21.813,0.088 39.482,17.755 39.482,39.51 l 0,-39.51 -39.482,0 z" /><path
     style="fill:#000000"
     inkscape:connector-curvature="0"
     id="path25"
     d="m 0,40.157 c 0,22.167 17.904,40.1 40.012,40.1 l 697.031,0 c 22.108,0 40.013,-17.933 40.013,-40.1 C 777.056,17.992 759.152,0 737.043,0 L 40.012,0 C 17.904,0 0,17.992 0,40.157 Z" /><path
     style="fill:#000000"
     inkscape:connector-curvature="0"
     id="path27"
     d="m 0,690.931 c 0,22.152 17.904,40.13 40.012,40.13 l 697.031,0 c 22.108,0 40.013,-17.978 40.013,-40.13 0,-22.165 -17.904,-40.127 -40.013,-40.127 l -697.031,0 C 17.904,650.803 0,668.766 0,690.931 Z" /><path
     style="fill:none;fill-rule:evenodd;stroke:#000000;stroke-width:70.19999695;stroke-linecap:round;stroke-linejoin:miter;stroke-miterlimit:4;stroke-dasharray:none;stroke-opacity:1"
     d="M 217.68154,571.6387 553.95272,162.14717"
     id="path4173"
     inkscape:connector-curvature="0" /><circle
     style="opacity:1;fill:#000000;fill-opacity:1;stroke:none;stroke-width:70.19999695;stroke-linecap:round;stroke-miterlimit:4;stroke-dasharray:none;stroke-opacity:1"
     id="path4175"
     cx="-366.89294"
     cy="385.81717"
     r="123.38983"
     transform="matrix(0,-1,1,0,0,0)" /></svg>